<?xml version="1.0" encoding="UTF-8" standalone="no"?>
<!-- Created with Inkscape (http://www.inkscape.org/) -->

<svg
   xmlns:dc="http://purl.org/dc/elements/1.1/"
   xmlns:cc="http://creativecommons.org/ns#"
   xmlns:rdf="http://www.w3.org/1999/02/22-rdf-syntax-ns#"
   xmlns:svg="http://www.w3.org/2000/svg"
   xmlns="http://www.w3.org/2000/svg"
   xmlns:sodipodi="http://sodipodi.sourceforge.net/DTD/sodipodi-0.dtd"
   xmlns:inkscape="http://www.inkscape.org/namespaces/inkscape"
   version="1.1"
   id="svg2"
   width="55.476299"
   height="55.476299"
   viewBox="0 0 55.476299 55.476299"
   sodipodi:docname="error.svg"
   inkscape:version="0.92.3 (2405546, 2018-03-11)">
  <metadata
     id="metadata8">
    <rdf:RDF>
      <cc:Work
         rdf:about="">
        <dc:format>image/svg+xml</dc:format>
        <dc:type
           rdf:resource="http://purl.org/dc/dcmitype/StillImage" />
        <dc:title></dc:title>
      </cc:Work>
    </rdf:RDF>
  </metadata>
  <defs
     id="defs6" />
  <sodipodi:namedview
     pagecolor="#ffffff"
     bordercolor="#666666"
     borderopacity="1"
     objecttolerance="10"
     gridtolerance="10"
     guidetolerance="10"
     inkscape:pageopacity="0"
     inkscape:pageshadow="2"
     inkscape:window-width="2560"
     inkscape:window-height="1376"
     id="namedview4"
     showgrid="false"
     inkscape:zoom="17.016276"
     inkscape:cx="41.029959"
     inkscape:cy="23.607106"
     inkscape:window-x="0"
     inkscape:window-y="27"
     inkscape:window-maximized="1"
     inkscape:current-layer="svg2" />
  <path
     style="fill:#900048;fill-opacity:1;stroke-width:0.10835215"
     d="M 25.191874,55.293352 C 21.0146,54.895065 16.835707,53.502666 13.28563,51.326217 9.7162162,49.137914 6.2777042,45.699401 4.0894002,42.129988 -0.89744179,33.995789 -1.3297978,23.828742 2.9477522,15.28364 c 2.250553,-4.495846 6.037,-8.618177 10.3378778,-11.25492 8.134199,-4.98684205 18.301246,-5.419198 26.846348,-1.141648 4.495846,2.250553 8.618177,6.037 11.25492,10.337877 4.986843,8.134199 5.419198,18.301246 1.141648,26.846348 -2.250553,4.495846 -6.037,8.618177 -10.337877,11.25492 C 37.15573,54.412992 31.0075,55.84785 25.191874,55.293352 Z m 5.232261,-2.158447 C 42.414787,51.839504 51.900185,42.354106 53.195586,30.363454 53.42902,28.202724 53.31443,25.207915 52.914918,23.028169 51.172791,13.523087 43.897715,5.574425 34.608668,3.026976 c -4.583703,-1.257045 -9.157334,-1.257045 -13.741037,0 -9.289047,2.547449 -16.5641238,10.496111 -18.3062498,20.001193 -0.399512,2.179746 -0.514102,5.174555 -0.280669,7.335285 1.025239,9.48994 7.207867,17.592852 16.1391528,21.151871 1.899001,0.756732 4.406938,1.37939 6.501129,1.614069 1.190715,0.133435 4.290312,0.136538 5.503141,0.0055 z M 17.410791,37.992081 c -0.214715,-0.224113 -0.291152,-0.415346 -0.291152,-0.728409 0,-0.414771 0.105001,-0.52962 4.57616,-5.005358 l 4.57616,-4.580846 -4.57616,-4.580845 c -4.516576,-4.521202 -4.57616,-4.58654 -4.57616,-5.018104 0,-0.596299 0.428552,-1.019561 1.032307,-1.019561 0.414771,0 0.52962,0.105001 5.005358,4.57616 l 4.580845,4.57616 4.580846,-4.57616 c 4.521202,-4.516576 4.58654,-4.57616 5.018104,-4.57616 0.596299,0 1.019561,0.428552 1.019561,1.032307 0,0.414771 -0.105001,0.52962 -4.57616,5.005358 l -4.57616,4.580845 4.57616,4.580846 c 4.471159,4.475738 4.57616,4.590587 4.57616,5.005358 0,0.603755 -0.423262,1.032307 -1.019561,1.032307 -0.431564,0 -0.496902,-0.05958 -5.018104,-4.57616 l -4.580846,-4.57616 -4.580845,4.57616 c -4.521202,4.516576 -4.58654,4.57616 -5.018104,4.57616 -0.337636,0 -0.50359,-0.06924 -0.728409,-0.303898 z"
     id="path817"
     inkscape:connector-curvature="0" />
</svg>
