<?xml version="1.0" encoding="UTF-8" standalone="no"?>
<!-- Created with Inkscape (http://www.inkscape.org/) -->

<svg
   xmlns:dc="http://purl.org/dc/elements/1.1/"
   xmlns:cc="http://creativecommons.org/ns#"
   xmlns:rdf="http://www.w3.org/1999/02/22-rdf-syntax-ns#"
   xmlns:svg="http://www.w3.org/2000/svg"
   xmlns="http://www.w3.org/2000/svg"
   xmlns:sodipodi="http://sodipodi.sourceforge.net/DTD/sodipodi-0.dtd"
   xmlns:inkscape="http://www.inkscape.org/namespaces/inkscape"
   version="1.1"
   id="svg2"
   width="682.66669"
   height="682.66669"
   viewBox="0 0 682.66669 682.66669"
   sodipodi:docname="not_found.svg"
   inkscape:version="0.92.3 (2405546, 2018-03-11)">
  <metadata
     id="metadata8">
    <rdf:RDF>
      <cc:Work
         rdf:about="">
        <dc:format>image/svg+xml</dc:format>
        <dc:type
           rdf:resource="http://purl.org/dc/dcmitype/StillImage" />
        <dc:title></dc:title>
      </cc:Work>
    </rdf:RDF>
  </metadata>
  <defs
     id="defs6" />
  <sodipodi:namedview
     pagecolor="#ffffff"
     bordercolor="#666666"
     borderopacity="1"
     objecttolerance="10"
     gridtolerance="10"
     guidetolerance="10"
     inkscape:pageopacity="0"
     inkscape:pageshadow="2"
     inkscape:window-width="2560"
     inkscape:window-height="1376"
     id="namedview4"
     showgrid="false"
     inkscape:zoom="0.34570311"
     inkscape:cx="338.44069"
     inkscape:cy="341.33334"
     inkscape:window-x="0"
     inkscape:window-y="27"
     inkscape:window-maximized="1"
     inkscape:current-layer="svg2" />
  <path
     style="fill:#300761;stroke-width:1.33333337;fill-opacity:1"
     d="m 610.09508,680.68572 c -17.33475,-3.77136 -17.20151,-3.65719 -96.07912,-82.33662 l -73.54339,-73.3586 -7.78995,4.69305 C 350.60866,579.12903 244.2062,582.41511 158.226,538.15973 130.35973,523.81651 110.06895,509.01135 87.141185,486.29272 63.322305,462.69111 47.092615,440.14138 32.231105,410.00001 2.1095051,348.90888 -4.8063149,280.48238 12.297505,212.77305 28.966595,146.78475 72.404925,86.066436 130.47176,47.588496 c 84.40853,-55.9332304 191.90532,-62.87968 282.42091,-18.25004 31.24635,15.40633 53.37765,31.54557 78.07666,56.93736 42.42179,43.611684 67.83032,94.022634 78.15334,155.057524 3.28544,19.42514 3.29306,68.31848 0.0136,87.33334 -6.30466,36.55564 -17.96915,69.00432 -35.87891,99.80911 l -5.31538,9.14244 73.89885,74.19089 c 81.61016,81.9327 79.03975,78.82693 82.47997,99.65827 5.35383,32.41869 -17.76424,64.57915 -50.2454,69.89841 -9.93671,1.62726 -13.89015,1.51514 -23.98035,-0.68008 z m 25.51317,-26.90863 c 4.08663,-1.39245 8.82429,-4.52327 12.68126,-8.38024 9.98356,-9.98356 12.97877,-23.06427 8.4324,-36.82598 -1.96381,-5.94441 -9.51319,-13.94358 -79.18608,-83.90419 -42.35843,-42.53333 -77.68159,-78.64389 -78.49591,-80.24568 -2.55956,-5.03474 -1.72151,-7.54852 7.86202,-23.58224 11.25862,-18.83623 14.66983,-25.46475 20.1182,-39.09287 20.09458,-50.26295 24.01197,-105.65377 11.22479,-158.71551 C 524.817,167.30979 490.04037,114.55715 443.25798,78.944756 c -34.0922,-25.95219 -75.89421,-43.34278 -119.69864,-49.79739 -15.45339,-2.27707 -56.54662,-2.27707 -72,0 -95.58821,14.08497 -175.279665,79.513484 -207.285275,170.185974 -9.75213,27.62797 -13.99193,53.82232 -13.91991,86 0.1082,48.34222 11.2051,89.52765 35.21488,130.69777 14.8403,25.44699 42.184725,56.16431 66.120265,74.27608 68.47554,51.81479 156.50797,66.08955 239.20337,38.78767 16.94696,-5.59504 33.34559,-13.34831 52.626,-24.88155 8.77763,-5.25064 16.68856,-9.54663 17.57987,-9.54663 5.49866,0 16.66746,10.32243 86.4608,79.90883 83.50242,83.25482 80.93734,81.06901 95.42915,81.31925 3.3527,0.0579 9.03159,-0.89506 12.61976,-2.11767 z M 267.74003,491.91399 C 203.72772,486.2406 143.83968,448.67414 109.58318,392.70564 81.454365,346.74861 72.553795,287.65744 85.728845,234.33597 101.21008,171.68099 148.53341,116.57332 207.55933,92.465226 c 6.6,-2.69565 14.70571,-5.16557 18.01268,-5.4887 5.14394,-0.50262 6.5191,-0.0811 9.51747,2.91727 5.94549,5.94548 5.86139,13.509304 -0.21315,19.168584 -1.56549,1.45849 -6.55225,3.99438 -11.08168,5.63533 -58.39277,21.15487 -103.82073,75.89274 -115.05628,138.63563 -2.97788,16.62947 -3.00754,45.87691 -0.0632,62.29808 12.29523,68.57223 62.18879,124.53018 128.05237,143.6167 64.55908,18.70848 133.38148,0.63908 180.47889,-47.38495 28.17008,-28.7243 45.08642,-63.13122 50.40936,-102.52983 2.45394,-18.16336 2.42326,-31.13532 -0.11667,-49.34614 -5.82216,-41.74318 -23.96613,-77.08407 -54.80409,-106.74767 -19.70971,-18.95913 -43.04042,-32.86622 -69.20419,-41.2516 -19.74975,-6.32971 -20.56123,-6.7156 -22.66104,-10.77619 -3.77651,-7.302964 -1.03454,-15.605224 6.13468,-18.574814 4.78572,-1.98231 10.0951,-0.99019 28.63769,5.35129 52.67539,18.014724 97.39526,58.298514 120.64626,108.678454 23.70248,51.35823 25.68865,111.22437 5.41892,163.33334 -28.91747,74.34032 -96.45411,124.90311 -176.26895,131.96761 -16.74661,1.48226 -20.38755,1.47708 -37.65837,-0.0536 z M 212.90012,367.79077 c -5.38268,-1.43956 -8.60887,-6.06545 -8.64447,-12.39494 -0.0288,-5.11382 0.93228,-6.23572 32.25543,-37.65453 l 32.2851,-32.38365 -32.2851,-32.45892 -32.28508,-32.45894 v -6.03806 c 0,-8.44879 4.6196,-13.06839 13.06839,-13.06839 h 6.03806 l 32.45894,32.28508 32.45892,32.2851 32.38365,-32.2851 c 31.41881,-31.32315 32.54071,-32.2842 37.65453,-32.25543 8.80308,0.0495 14.27241,6.84052 12.86218,15.97035 -0.34077,2.20617 -11.27428,14.15599 -32.33355,35.33903 l -31.81868,32.00571 31.76626,31.99429 c 33.87412,34.1173 35.00568,35.71707 31.38805,44.37528 -2.15118,5.14854 -8.63701,8.39951 -14.59376,7.31506 -2.98542,-0.54352 -12.11559,-8.78291 -36.00535,-32.49254 l -32.0057,-31.76439 -31.9943,31.76626 c -20.61096,20.46404 -33.18899,31.98101 -35.35209,32.36984 -1.84678,0.33197 -5.13242,0.12893 -7.30143,-0.45111 z m 58.48194,-267.48708 c -10.06828,-8.155624 -5.29968,-22.970354 7.39374,-22.970354 5.91203,0 9.87356,2.58417 12.06239,7.86849 2.11751,5.11209 -0.0712,12.36686 -4.63264,15.355634 -4.21229,2.76 -11.25171,2.63949 -14.82349,-0.25377 z"
     id="path817"
     inkscape:connector-curvature="0" />
</svg>
